:SAMPLES-PER-SECOND 30
:FULLY-SPECIFIED
:DEGREES
66
root  41.7898 39.1785 -4.21294 -86.649 -85.6442 84.8263
RightUpLeg  -26.5093 -11.7345 -1.12649
RightLeg  20.3356 -4.63229 -2.10137
RightFoot  -1.37341 -0.52003 5.85044
RightToes  0.00048216 0.542163 -0.142577
Spine  18.4378 -2.02011 -11.1872
Spine1  11.7143 -5.56751 5.47552
HEad  -3.61382 10.2095 -2.42908
LeftShoulder1  8.92751 -12.774 -47.8709
LeftArm  -13.1117 -2.75181 -29.4067
LeftForeArm  26.8416 -14.398 -4.26111
LeftHand  -0.25398 0.0180481 5.50724
RightShoulder  5.41616 8.56797 38.7885
RightArm  22.2047 -45.3585 34.8244
RightForeArm  -1.76111 32.591 7.3056
RightHand  -0.839477 0.443437 -16.7252
LeftUpLeg  3.95562 7.6705 -2.89981
LeftLeg  15.4075 13.9102 -0.425951
LeftFoot  -19.0403 -0.0620799 -2.61607
LeftToes  1.06249e-005 4.65856e-005 -8.18498e-006
67
root  40.4244 38.8235 -4.18877 -94.8913 -84.4151 93.9303
RightUpLeg  -28.0786 -13.8586 -0.463727
RightLeg  19.2112 -5.53567 -2.34819
RightFoot  -1.40443 -0.602733 6.82547
RightToes  0.00048216 0.542163 -0.142577
Spine  19.3344 -2.21117 -11.403
Spine1  11.4298 -5.72329 5.01476
HEad  -6.38037 10.9761 -3.01428
LeftShoulder1  9.21476 -13.1181 -48.3955
LeftArm  -10.9355 -5.95625 -28.8709
LeftForeArm  25.6468 -17.8995 -3.95569
LeftHand  -0.25398 0.0180481 5.50724
RightShoulder  5.46214 8.7315 38.5747
RightArm  23.1967 -49.1735 34.4945
RightForeArm  -1.20895 33.8668 7.62174
RightHand  -0.954183 1.19502 -16.8945
LeftUpLeg  5.37293 7.00715 -4.30916
LeftLeg  15.5285 15.1706 -0.282343
LeftFoot  -21.6762 -0.172229 -3.33001
LeftToes  1.06249e-005 4.65856e-005 -8.18498e-006
68
root  38.9992 38.4504 -4.12065 -101.812 -83.4178 101.906
RightUpLeg  -30.0301 -13.9157 -0.167288
RightLeg  21.6067 -7.2042 -3.35473
RightFoot  -1.48917 -0.466955 5.28142
RightToes  0.00048216 0.542163 -0.142577
Spine  20.3749 -2.52715 -10.518
Spine1  11.1105 -5.81547 4.29578
HEad  -9.42366 11.4754 -4.01603
LeftShoulder1  9.51049 -13.4048 -49.1064
LeftArm  -8.25109 -8.7709 -28.2459
LeftForeArm  25.7563 -22.8395 -3.71286
LeftHand  -0.25398 0.0180481 5.50724
RightShoulder  5.49967 8.90199 38.2761
RightArm  24.1875 -52.2694 34.3009
RightForeArm  -1.84248 34.9115 7.95031
RightHand  -1.01599 1.48413 -17.2554
LeftUpLeg  6.80533 6.8699 -5.47864
LeftLeg  15.3736 15.9718 -0.117166
LeftFoot  -23.872 -0.319592 -4.22207
LeftToes  1.06249e-005 4.65856e-005 -8.18498e-006
69
root  37.4953 38.0942 -4.0324 -110.259 -82.6321 111.774
RightUpLeg  -32.6169 -11.474 -0.322518
RightLeg  27.1272 -8.99241 -5.20288
RightFoot  -3.00891 -0.130563 1.40666
RightToes  0.00048216 0.542163 -0.142577
Spine  21.384 -2.74351 -8.75249
Spine1  10.8657 -5.69123 3.63457
HEad  -12.9454 11.3262 -5.35412
LeftShoulder1  9.78322 -13.655 -49.7786
LeftArm  -7.65809 -11.2296 -28.0335
LeftForeArm  29.8325 -28.6424 -4.54736
LeftHand  -0.25398 0.0180481 5.50724
RightShoulder  5.57418 9.0679 38.283
RightArm  23.518 -54.22 34.1395
RightForeArm  -2.19935 35.4424 8.12214
RightHand  -1.08556 1.71119 -17.8508
LeftUpLeg  8.21407 7.1327 -6.23239
LeftLeg  14.7711 16.7393 -0.168128
LeftFoot  -25.2446 -0.409805 -4.61276
LeftToes  1.06249e-005 4.65856e-005 -8.18498e-006
70
root  35.8963 37.6902 -3.90089 -119.942 -82.2948 123.483
RightUpLeg  -35.8442 -8.43287 -0.19925
RightLeg  34.1147 -10.0703 -7.4987
RightFoot  -6.32801 0.0160812 -1.22922
RightToes  0.00048216 0.542163 -0.142577
Spine  22.7751 -3.07792 -5.88259
Spine1  9.7407 -5.4855 3.21127
HEad  -16.674 10.7635 -7.16069
LeftShoulder1  9.96604 -13.8473 -50.1455
LeftArm  -7.02434 -12.7483 -28.7905
LeftForeArm  34.1441 -35.0379 -5.86505
LeftHand  -0.25398 0.0180481 5.50724
RightShoulder  5.70614 9.33581 38.3831
RightArm  20.7127 -54.5651 34.2468
RightForeArm  -2.05255 34.6115 7.87964
RightHand  -1.48444 3.42249 -19.6254
LeftUpLeg  9.06274 7.35985 -6.53939
LeftLeg  14.2639 17.829 0.135138
LeftFoot  -27.027 -0.482902 -4.68117
LeftToes  1.06249e-005 4.65856e-005 -8.18498e-006
71
root  34.2661 37.2189 -3.69976 -129.688 -83.165 135.808
RightUpLeg  -39.0226 -6.75109 0.923645
RightLeg  40.4629 -10.2571 -9.50446
RightFoot  -10.3111 -0.0573145 -0.630059
RightToes  0.00048216 0.542163 -0.142577
Spine  25.3576 -4.13349 -1.47888
Spine1  6.8488 -5.75678 3.46183
HEad  -20.4671 10.5176 -9.99764
LeftShoulder1  10.0872 -13.9936 -50.3293
LeftArm  -6.12754 -12.6215 -29.9342
LeftForeArm  36.2342 -41.9807 -7.70623
LeftHand  -0.25398 0.0180481 5.50724
RightShoulder  5.82781 9.74332 37.9544
RightArm  16.572 -53.0895 34.5023
RightForeArm  -2.27939 32.7013 7.3638
RightHand  -2.38436 6.77282 -22.834
LeftUpLeg  8.61637 9.8446 -5.56937
LeftLeg  15.2968 15.9348 1.69496
LeftFoot  -29.6617 -0.775659 -5.87744
LeftToes  1.06249e-005 4.65856e-005 -8.18498e-006
72
root  32.6327 36.6928 -3.49664 -142.095 -85.3674 150.85
RightUpLeg  -41.4383 -6.72151 2.94422
RightLeg  45.5954 -9.93706 -10.9891
RightFoot  -14.3499 -0.0665678 1.1903
RightToes  0.00048216 0.542163 -0.142577
Spine  28.8495 -5.85961 3.76727
Spine1  3.11967 -6.53525 4.78751
HEad  -24.691 10.665 -13.7139
LeftShoulder1  10.3483 -14.2912 -50.7631
LeftArm  -5.67415 -11.4787 -30.9246
LeftForeArm  36.5026 -48.7498 -10.0566
LeftHand  -0.25398 0.0180481 5.50724
RightShoulder  6.00796 10.2665 37.6013
RightArm  11.4821 -49.877 33.9482
RightForeArm  -2.83313 31.7527 7.1415
RightHand  -3.53532 10.2432 -26.2653
LeftUpLeg  5.93029 14.2558 -3.26863
LeftLeg  20.82 10.5675 4.75134
LeftFoot  -31.1619 -1.323 -8.67825
LeftToes  1.06249e-005 4.65856e-005 -8.18498e-006
73
root  30.9304 36.0823 -3.4144 -170.275 -87.4957 -178.884
RightUpLeg  -42.866 -7.36745 5.20555
RightLeg  50.362 -9.4621 -12.3725
RightFoot  -18.6038 -0.0118971 1.86397
RightToes  0.00048216 0.542163 -0.142577
Spine  31.9589 -7.18869 8.40522
Spine1  0.515491 -6.92513 6.73134
HEad  -29.2683 10.3633 -16.7751
LeftShoulder1  10.8779 -14.9002 -51.5814
LeftArm  -5.69188 -10.9865 -32.4795
LeftForeArm  37.1638 -53.0178 -11.8495
LeftHand  -0.25398 0.0180481 5.50724
RightShoulder  6.50745 10.9332 38.975
RightArm  5.91796 -44.7591 31.5034
RightForeArm  -3.6607 32.8737 7.48824
RightHand  -4.63745 13.0864 -28.9959
LeftUpLeg  0.317628 11.3986 -1.42612
LeftLeg  33.4567 11.2286 8.29709
LeftFoot  -28.9824 -1.48494 -10.6578
LeftToes  1.06249e-005 4.65856e-005 -8.18498e-006
74
root  29.1096 35.3684 -3.49616 143.519 -87.639 -131.464
RightUpLeg  -43.257 -7.80652 7.35064
RightLeg  55.3012 -8.79087 -13.7844
RightFoot  -22.9278 0.00451067 1.58481
RightToes  0.00048216 0.542163 -0.142577
Spine  33.9506 -7.27785 11.6256
Spine1  -0.354924 -6.26513 8.48234
HEad  -33.2674 9.2699 -18.0212
LeftShoulder1  11.505 -15.5892 -52.5633
LeftArm  -5.47802 -11.3263 -34.9521
LeftForeArm  38.7376 -52.6297 -11.5875
LeftHand  -0.25398 0.0180481 5.50724
RightShoulder  7.40294 11.7078 42.361
RightArm  1.56359 -36.8188 26.8795
RightForeArm  -5.28988 34.4147 8.00039
RightHand  -5.6183 15.4323 -31.0335
LeftUpLeg  -7.36514 9.36114 0.364515
LeftLeg  50.638 9.80543 13.0061
LeftFoot  -23.649 -0.806877 -8.59583
LeftToes  1.06249e-005 4.65856e-005 -8.18498e-006
75
root  27.2023 34.6422 -3.66771 124.439 -85.956 -112.033
RightUpLeg  -42.2067 -8.07581 9.47555
RightLeg  59.7384 -7.81737 -14.6543
RightFoot  -27.1468 0.0704678 1.81217
RightToes  0.00048216 0.542163 -0.142577
Spine  34.9615 -6.56235 13.7048
Spine1  -0.452053 -4.99772 9.98848
HEad  -36.1575 8.26161 -18.411
LeftShoulder1  11.956 -15.952 -53.5716
LeftArm  -4.9853 -10.3912 -36.4179
LeftForeArm  39.5105 -47.7743 -9.48679
LeftHand  -0.25398 0.0180481 5.50724
RightShoulder  8.35677 12.3577 46.0566
RightArm  -0.668912 -25.1163 21.1367
RightForeArm  -6.7953 34.9598 8.23529
RightHand  -6.29543 16.9341 -32.3359
LeftUpLeg  -16.2111 7.20548 1.88867
LeftLeg  67.7192 6.47048 17.6429
LeftFoot  -19.6621 -0.121613 -3.44072
LeftToes  1.06249e-005 4.65856e-005 -8.18498e-006
